<svg width="615" height="568" viewBox="0 0 615 568" fill="none" xmlns="http://www.w3.org/2000/svg">
<g opacity="0.4">
<path d="M463.13 410.336L489.46 395.851L515.79 409.612L489.46 424.096L463.13 410.336Z" fill="white"/>
<path d="M467.776 410.633L489.46 398.748L511.144 410.039L489.46 421.923L467.776 410.633Z" fill="#797B84"/>
<path d="M489.46 410.336V398.748L511.144 410.039L489.46 421.923V410.336Z" fill="#393A4A"/>
<path d="M463.13 410.336V439.306L489.46 453.79V424.097L463.13 410.336Z" fill="#BDBDBD"/>
<path d="M489.46 424.097L515.79 409.612V438.727L489.46 453.791V424.097Z" fill="#F3F3F3"/>
<path d="M421.559 430.682L447.889 416.197L474.219 429.957L447.889 444.442L421.559 430.682Z" fill="white"/>
<path d="M426.205 430.978L447.889 419.093L469.572 430.384L447.889 442.269L426.205 430.978Z" fill="#797B84"/>
<path d="M447.887 430.681V419.093L469.57 430.384L447.887 442.269V430.681Z" fill="#393A4A"/>
<path d="M421.559 430.682V459.651L447.889 474.136V444.442L421.559 430.682Z" fill="#BDBDBD"/>
<path d="M447.887 444.442L474.217 429.958V459.072L447.887 474.136V444.442Z" fill="#F3F3F3"/>
<path d="M504.901 430.682L531.231 416.197L557.562 429.957L531.231 444.442L504.901 430.682Z" fill="white"/>
<path d="M509.548 430.978L531.231 419.093L552.915 430.384L531.231 442.269L509.548 430.978Z" fill="#797B84"/>
<path d="M531.229 430.681V419.093L552.913 430.384L531.229 442.269V430.681Z" fill="#393A4A"/>
<path d="M504.901 430.682V459.651L531.231 474.136V444.442L504.901 430.682Z" fill="#BDBDBD"/>
<path d="M531.229 444.442L557.56 429.958V459.072L531.229 474.136V444.442Z" fill="#F3F3F3"/>
<path d="M463.13 453.469L489.46 438.984L515.79 452.744L489.46 467.229L463.13 453.469Z" fill="white"/>
<path d="M467.776 453.766L489.46 441.881L511.144 453.171L489.46 465.056L467.776 453.766Z" fill="#797B84"/>
<path d="M489.46 453.468V441.881L511.144 453.171L489.46 465.056V453.468Z" fill="#393A4A"/>
<path d="M463.13 453.469V482.438L489.46 496.923V467.229L463.13 453.469Z" fill="#BDBDBD"/>
<path d="M489.46 467.229L515.79 452.745V481.859L489.46 496.923V467.229Z" fill="#F3F3F3"/>
<path fill-rule="evenodd" clip-rule="evenodd" d="M489.117 465.027L426.582 431.253L368.278 167.98H614.546L552.762 430.439L489.117 465.027Z" fill="url(#paint0_linear_41_5007)" fill-opacity="0.8"/>
</g>
<g opacity="0.4">
<path d="M279.639 242.356L305.969 227.871L332.299 241.632L305.969 256.116L279.639 242.356Z" fill="white"/>
<path d="M284.285 242.653L305.969 230.768L327.652 242.059L305.969 253.944L284.285 242.653Z" fill="#797B84"/>
<path d="M305.969 242.356V230.768L327.652 242.059L305.969 253.944V242.356Z" fill="#393A4A"/>
<path d="M279.639 242.356V271.325L305.969 285.81V256.116L279.639 242.356Z" fill="#BDBDBD"/>
<path d="M305.969 256.117L332.299 241.632V270.746L305.969 285.811V256.117Z" fill="#F3F3F3"/>
<path d="M238.065 262.702L264.395 248.217L290.726 261.977L264.395 276.462L238.065 262.702Z" fill="white"/>
<path d="M242.712 262.998L264.396 251.113L286.079 262.404L264.396 274.289L242.712 262.998Z" fill="#797B84"/>
<path d="M264.396 262.701V251.113L286.079 262.404L264.396 274.289V262.701Z" fill="#393A4A"/>
<path d="M238.065 262.701V291.671L264.395 306.156V276.462L238.065 262.701Z" fill="#BDBDBD"/>
<path d="M264.396 276.462L290.726 261.977V291.092L264.396 306.156V276.462Z" fill="#F3F3F3"/>
<path d="M321.406 262.702L347.736 248.217L374.066 261.977L347.736 276.462L321.406 262.702Z" fill="white"/>
<path d="M326.053 262.998L347.736 251.113L369.42 262.404L347.736 274.289L326.053 262.998Z" fill="#797B84"/>
<path d="M347.736 262.701V251.113L369.42 262.404L347.736 274.289V262.701Z" fill="#393A4A"/>
<path d="M321.406 262.701V291.671L347.736 306.156V276.462L321.406 262.701Z" fill="#BDBDBD"/>
<path d="M347.736 276.462L374.066 261.977V291.092L347.736 306.156V276.462Z" fill="#F3F3F3"/>
<path d="M279.639 285.489L305.969 271.004L332.299 284.764L305.969 299.249L279.639 285.489Z" fill="white"/>
<path d="M284.285 285.786L305.969 273.901L327.652 285.192L305.969 297.077L284.285 285.786Z" fill="#797B84"/>
<path d="M305.969 285.489V273.901L327.652 285.192L305.969 297.077V285.489Z" fill="#393A4A"/>
<path d="M279.639 285.489V314.459L305.969 328.943V299.25L279.639 285.489Z" fill="#BDBDBD"/>
<path d="M305.969 299.249L332.299 284.765V313.879L305.969 328.943V299.249Z" fill="#F3F3F3"/>
<path fill-rule="evenodd" clip-rule="evenodd" d="M305.624 297.047L243.089 263.273L184.785 0H431.053L369.269 262.459L305.624 297.047Z" fill="url(#paint1_linear_41_5007)" fill-opacity="0.8"/>
</g>
<g opacity="0.4">
<path d="M277.053 335.41L303.383 320.925L329.713 334.685L303.383 349.17L277.053 335.41Z" fill="white"/>
<path d="M281.699 335.706L303.383 323.821L325.066 335.112L303.383 346.997L281.699 335.706Z" fill="#797B84"/>
<path d="M303.381 335.409V323.821L325.064 335.112L303.381 346.997V335.409Z" fill="#393A4A"/>
<path d="M277.053 335.409V364.379L303.383 378.864V349.17L277.053 335.409Z" fill="#BDBDBD"/>
<path d="M303.381 349.17L329.711 334.686V363.8L303.381 378.864V349.17Z" fill="#F3F3F3"/>
<path d="M235.481 355.755L261.812 341.27L288.142 355.031L261.812 369.516L235.481 355.755Z" fill="white"/>
<path d="M240.128 356.052L261.812 344.167L283.495 355.458L261.812 367.343L240.128 356.052Z" fill="#797B84"/>
<path d="M261.812 355.755V344.167L283.495 355.458L261.812 367.343V355.755Z" fill="#393A4A"/>
<path d="M235.481 355.755V384.725L261.812 399.21V369.516L235.481 355.755Z" fill="#BDBDBD"/>
<path d="M261.812 369.516L288.142 355.031V384.145L261.812 399.21V369.516Z" fill="#F3F3F3"/>
<path d="M318.825 355.755L345.155 341.27L371.485 355.031L345.155 369.516L318.825 355.755Z" fill="white"/>
<path d="M323.472 356.052L345.155 344.167L366.839 355.458L345.155 367.343L323.472 356.052Z" fill="#797B84"/>
<path d="M345.155 355.755V344.167L366.839 355.458L345.155 367.343V355.755Z" fill="#393A4A"/>
<path d="M318.825 355.755V384.725L345.155 399.21V369.516L318.825 355.755Z" fill="#BDBDBD"/>
<path d="M345.155 369.516L371.485 355.031V384.145L345.155 399.21V369.516Z" fill="#F3F3F3"/>
<path d="M277.053 378.542L303.383 364.057L329.713 377.818L303.383 392.303L277.053 378.542Z" fill="white"/>
<path d="M281.699 378.839L303.383 366.954L325.066 378.245L303.383 390.13L281.699 378.839Z" fill="#797B84"/>
<path d="M303.381 378.542V366.954L325.064 378.245L303.381 390.13V378.542Z" fill="#393A4A"/>
<path d="M277.053 378.542V407.512L303.383 421.997V392.303L277.053 378.542Z" fill="#BDBDBD"/>
<path d="M303.381 392.303L329.711 377.818V406.933L303.381 421.997V392.303Z" fill="#F3F3F3"/>
<path fill-rule="evenodd" clip-rule="evenodd" d="M303.04 390.1L240.505 356.326L182.201 93.0537H428.469L366.685 355.513L303.04 390.1Z" fill="url(#paint2_linear_41_5007)" fill-opacity="0.8"/>
</g>
<g opacity="0.4">
<path d="M105.186 296.738L131.516 282.253L157.846 296.013L131.516 310.498L105.186 296.738Z" fill="white"/>
<path d="M109.832 297.034L131.516 285.149L153.199 296.44L131.516 308.325L109.832 297.034Z" fill="#797B84"/>
<path d="M131.516 296.737V285.149L153.199 296.44L131.516 308.325V296.737Z" fill="#393A4A"/>
<path d="M105.186 296.737V325.707L131.516 340.192V310.498L105.186 296.737Z" fill="#BDBDBD"/>
<path d="M131.516 310.498L157.846 296.013V325.128L131.516 340.192V310.498Z" fill="#F3F3F3"/>
<path d="M63.6152 317.083L89.9453 302.599L116.275 316.359L89.9453 330.844L63.6152 317.083Z" fill="white"/>
<path d="M68.2617 317.381L89.9453 305.496L111.629 316.786L89.9453 328.671L68.2617 317.381Z" fill="#797B84"/>
<path d="M89.9453 317.083V305.496L111.629 316.786L89.9453 328.671V317.083Z" fill="#393A4A"/>
<path d="M63.6152 317.084V346.053L89.9453 360.538V330.844L63.6152 317.084Z" fill="#BDBDBD"/>
<path d="M89.9453 330.844L116.275 316.359V345.474L89.9453 360.538V330.844Z" fill="#F3F3F3"/>
<path d="M146.957 317.083L173.287 302.599L199.617 316.359L173.287 330.844L146.957 317.083Z" fill="white"/>
<path d="M151.604 317.381L173.287 305.496L194.971 316.786L173.287 328.671L151.604 317.381Z" fill="#797B84"/>
<path d="M173.287 317.083V305.496L194.971 316.786L173.287 328.671V317.083Z" fill="#393A4A"/>
<path d="M146.957 317.084V346.053L173.287 360.538V330.844L146.957 317.084Z" fill="#BDBDBD"/>
<path d="M173.287 330.844L199.617 316.359V345.474L173.287 360.538V330.844Z" fill="#F3F3F3"/>
<path d="M105.186 339.871L131.516 325.386L157.846 339.147L131.516 353.631L105.186 339.871Z" fill="white"/>
<path d="M109.832 340.168L131.516 328.283L153.199 339.573L131.516 351.458L109.832 340.168Z" fill="#797B84"/>
<path d="M131.516 339.871V328.283L153.199 339.573L131.516 351.458V339.871Z" fill="#393A4A"/>
<path d="M105.186 339.871V368.841L131.516 383.326V353.632L105.186 339.871Z" fill="#BDBDBD"/>
<path d="M131.516 353.632L157.846 339.147V368.261L131.516 383.326V353.632Z" fill="#F3F3F3"/>
<path fill-rule="evenodd" clip-rule="evenodd" d="M131.174 351.429L68.6397 317.655L10.3359 54.3821H256.604L194.82 316.841L131.174 351.429Z" fill="url(#paint3_linear_41_5007)" fill-opacity="0.8"/>
</g>
<g opacity="0.4">
<path d="M438.58 296.737L464.91 282.252L491.24 296.013L464.91 310.497L438.58 296.737Z" fill="white"/>
<path d="M443.228 297.034L464.911 285.149L486.595 296.439L464.911 308.324L443.228 297.034Z" fill="#797B84"/>
<path d="M464.91 296.737V285.149L486.594 296.439L464.91 308.324V296.737Z" fill="#393A4A"/>
<path d="M438.58 296.737V325.706L464.91 340.191V310.497L438.58 296.737Z" fill="#BDBDBD"/>
<path d="M464.91 310.497L491.24 296.013V325.127L464.91 340.191V310.497Z" fill="#F3F3F3"/>
<path d="M397.004 317.083L423.334 302.599L449.664 316.359L423.334 330.844L397.004 317.083Z" fill="white"/>
<path d="M401.65 317.381L423.334 305.496L445.018 316.786L423.334 328.671L401.65 317.381Z" fill="#797B84"/>
<path d="M423.334 317.083V305.496L445.018 316.786L423.334 328.671V317.083Z" fill="#393A4A"/>
<path d="M397.004 317.084V346.053L423.334 360.538V330.844L397.004 317.084Z" fill="#BDBDBD"/>
<path d="M423.334 330.844L449.664 316.359V345.474L423.334 360.538V330.844Z" fill="#F3F3F3"/>
<path d="M480.346 317.084L506.676 302.599L533.006 316.359L506.676 330.844L480.346 317.084Z" fill="white"/>
<path d="M484.992 317.381L506.676 305.496L528.359 316.786L506.676 328.671L484.992 317.381Z" fill="#797B84"/>
<path d="M506.676 317.083V305.496L528.359 316.786L506.676 328.671V317.083Z" fill="#393A4A"/>
<path d="M480.346 317.084V346.053L506.676 360.538V330.844L480.346 317.084Z" fill="#BDBDBD"/>
<path d="M506.676 330.844L533.006 316.36V345.474L506.676 360.538V330.844Z" fill="#F3F3F3"/>
<path d="M438.58 339.871L464.91 325.386L491.24 339.147L464.91 353.631L438.58 339.871Z" fill="white"/>
<path d="M443.228 340.168L464.911 328.283L486.595 339.573L464.911 351.458L443.228 340.168Z" fill="#797B84"/>
<path d="M464.91 339.871V328.283L486.594 339.573L464.91 351.458V339.871Z" fill="#393A4A"/>
<path d="M438.58 339.871V368.84L464.91 383.325V353.631L438.58 339.871Z" fill="#BDBDBD"/>
<path d="M464.91 353.632L491.24 339.147V368.261L464.91 383.325V353.632Z" fill="#F3F3F3"/>
<path fill-rule="evenodd" clip-rule="evenodd" d="M464.564 351.429L402.029 317.655L343.726 54.3821H589.994L528.209 316.841L464.564 351.429Z" fill="url(#paint4_linear_41_5007)" fill-opacity="0.8"/>
</g>
<g opacity="0.4">
<path d="M94.8525 410.336L121.183 395.851L147.513 409.612L121.183 424.096L94.8525 410.336Z" fill="white"/>
<path d="M99.499 410.633L121.183 398.748L142.866 410.039L121.183 421.923L99.499 410.633Z" fill="#797B84"/>
<path d="M121.183 410.336V398.748L142.866 410.039L121.183 421.923V410.336Z" fill="#393A4A"/>
<path d="M94.8525 410.336V439.306L121.183 453.79V424.097L94.8525 410.336Z" fill="#BDBDBD"/>
<path d="M121.183 424.097L147.513 409.612V438.727L121.183 453.791V424.097Z" fill="#F3F3F3"/>
<path d="M53.2793 430.682L79.6094 416.197L105.939 429.957L79.6094 444.442L53.2793 430.682Z" fill="white"/>
<path d="M57.9258 430.978L79.6094 419.093L101.293 430.384L79.6094 442.269L57.9258 430.978Z" fill="#797B84"/>
<path d="M79.6094 430.681V419.093L101.293 430.384L79.6094 442.269V430.681Z" fill="#393A4A"/>
<path d="M53.2793 430.682V459.651L79.6094 474.136V444.442L53.2793 430.682Z" fill="#BDBDBD"/>
<path d="M79.6094 444.442L105.939 429.958V459.072L79.6094 474.136V444.442Z" fill="#F3F3F3"/>
<path d="M136.623 430.682L162.953 416.197L189.283 429.957L162.953 444.442L136.623 430.682Z" fill="white"/>
<path d="M141.27 430.978L162.953 419.093L184.637 430.384L162.953 442.269L141.27 430.978Z" fill="#797B84"/>
<path d="M162.953 430.681V419.093L184.637 430.384L162.953 442.269V430.681Z" fill="#393A4A"/>
<path d="M136.623 430.682V459.651L162.953 474.136V444.442L136.623 430.682Z" fill="#BDBDBD"/>
<path d="M162.953 444.442L189.283 429.958V459.072L162.953 474.136V444.442Z" fill="#F3F3F3"/>
<path d="M94.8525 453.469L121.183 438.984L147.513 452.744L121.183 467.229L94.8525 453.469Z" fill="white"/>
<path d="M99.499 453.766L121.183 441.881L142.866 453.171L121.183 465.056L99.499 453.766Z" fill="#797B84"/>
<path d="M121.183 453.468V441.881L142.866 453.171L121.183 465.056V453.468Z" fill="#393A4A"/>
<path d="M94.8525 453.469V482.438L121.183 496.923V467.229L94.8525 453.469Z" fill="#BDBDBD"/>
<path d="M121.183 467.229L147.513 452.745V481.859L121.183 496.923V467.229Z" fill="#F3F3F3"/>
<path fill-rule="evenodd" clip-rule="evenodd" d="M120.839 465.027L58.3038 431.253L0 167.98H246.268L184.484 430.439L120.839 465.027Z" fill="url(#paint5_linear_41_5007)" fill-opacity="0.8"/>
</g>
<path d="M264.903 438.438L304.002 416.929L343.101 437.363L304.002 458.872L264.903 438.438Z" fill="#06AFFF"/>
<path d="M271.802 438.88L304.001 421.231L336.2 437.997L304.001 455.646L271.802 438.88Z" fill="#0551CA"/>
<path d="M304.003 438.438V421.231L336.202 437.997L304.003 455.646V438.438Z" fill="#052DAC"/>
<path d="M264.903 438.438V481.457L304.002 502.966V458.872L264.903 438.438Z" fill="#2F80ED"/>
<path d="M304.003 458.873L343.102 437.364V480.597L304.003 502.967V458.873Z" fill="#3C8AFE"/>
<path d="M203.167 468.651L242.266 447.142L281.365 467.575L242.266 489.085L203.167 468.651Z" fill="#FFCB66"/>
<path d="M210.065 469.092L242.264 451.443L274.463 468.21L242.264 485.858L210.065 469.092Z" fill="#C18136"/>
<path d="M242.267 468.651V451.443L274.466 468.21L242.267 485.858V468.651Z" fill="#A85B15"/>
<path d="M203.167 468.651V511.669L242.266 533.178V489.085L203.167 468.651Z" fill="#DE7D24"/>
<path d="M242.267 489.085L281.365 467.576V510.809L242.267 533.179V489.085Z" fill="#F39526"/>
<path d="M326.93 468.651L366.028 447.142L405.127 467.575L366.028 489.085L326.93 468.651Z" fill="#50FFF5"/>
<path d="M333.828 469.092L366.027 451.443L398.226 468.21L366.027 485.858L333.828 469.092Z" fill="#54FEF4"/>
<path d="M366.029 468.651V451.443L398.228 468.21L366.029 485.858V468.651Z" fill="#43EEEE"/>
<path d="M326.93 468.651V511.669L366.028 533.178V489.085L326.93 468.651Z" fill="#16DCDC"/>
<path d="M366.029 489.085L405.128 467.576V510.809L366.029 533.179V489.085Z" fill="#15FFF1"/>
<path d="M264.903 502.488L304.002 480.979L343.101 501.413L304.002 522.922L264.903 502.488Z" fill="#42E7AA"/>
<path d="M271.802 502.929L304.001 485.28L336.2 502.046L304.001 519.695L271.802 502.929Z" fill="#139565"/>
<path d="M304.003 502.488V485.28L336.202 502.046L304.003 519.695V502.488Z" fill="#117E56"/>
<path d="M264.903 502.488V545.506L304.002 567.015V522.922L264.903 502.488Z" fill="#16A568"/>
<path d="M304.003 522.922L343.102 501.413V544.646L304.003 567.016V522.922Z" fill="#17CE8A"/>
<path fill-rule="evenodd" clip-rule="evenodd" d="M303.49 519.651L210.629 469.498L124.051 78.552H489.746L398 468.29L303.49 519.651Z" fill="url(#paint6_linear_41_5007)" fill-opacity="0.8"/>
<path d="M527.547 245.894V214.069C526.472 203.191 520.02 192.852 509.268 183.413V215.237C520.02 224.677 526.472 235.016 527.547 245.894ZM503.758 210.742V178.918C499.995 176.041 495.694 173.254 491.124 170.647V202.472C495.694 205.079 499.86 207.866 503.758 210.742ZM483.329 198.156V166.331C478.356 163.814 472.98 161.297 467.201 159.049V190.874C472.98 193.212 478.356 195.639 483.329 198.156ZM456.449 196.178V145.474C500.264 161.027 527.681 183.323 527.681 207.956V258.66C527.681 234.027 500.398 211.731 456.449 196.178Z" fill="#646D82"/>
<path d="M376.211 171.905V162.735C372.851 162.286 369.491 161.926 365.997 161.566V170.736C369.491 171.006 372.851 171.455 376.211 171.905ZM357.933 160.667V152.576C354.438 152.217 350.944 151.947 347.449 151.677V159.768C350.944 160.128 354.438 160.398 357.933 160.667ZM393.818 165.252V154.284C390.592 153.745 387.366 153.206 384.006 152.756V163.814C387.366 164.263 390.592 164.803 393.818 165.252ZM339.117 159.319V142.957C335.488 142.777 331.993 142.597 328.365 142.417V158.69C331.859 158.959 335.488 159.049 339.117 159.319ZM299.872 158.42V142.058C296.243 142.058 292.48 142.148 288.851 142.238V158.51C292.48 158.51 296.243 158.42 299.872 158.42ZM280.384 158.869V138.372C276.755 138.552 273.261 138.732 269.632 138.911V159.409C273.261 159.229 276.755 159.049 280.384 158.869ZM319.629 158.51V135.046C316.403 134.956 313.043 134.956 309.683 134.866C309.28 134.866 308.877 134.866 308.473 134.866V158.33C308.877 158.33 309.28 158.33 309.683 158.33C313.043 158.42 316.403 158.42 319.629 158.51ZM261.433 160.038V130.73C257.939 131 254.444 131.27 251.084 131.629V160.937C254.444 160.667 257.939 160.308 261.433 160.038ZM228.64 128.213C253.907 124.617 281.19 122.729 309.683 122.909C347.718 123.179 383.469 127.044 414.381 133.787V184.491C383.334 177.838 347.718 173.883 309.683 173.613C281.19 173.433 253.772 175.321 228.64 178.917V128.213Z" fill="#646D82"/>
<path d="M88.9978 209.639V220.877C93.107 213.354 96.121 211.438 99.7498 206.774C104.706 202.134 107.142 199.762 113.055 196.166C118.969 192.57 146.387 178.096 168.966 171.353V161.464C164.934 162.633 161.036 163.892 157.273 165.24C155.392 165.869 153.51 166.589 151.628 167.218C133.081 173.421 114.265 185.468 114.265 185.468C114.265 185.468 92.089 199.301 88.9978 209.639ZM86.041 196.616C94.6426 171.893 130.931 150.586 182.272 137.281V187.985C130.931 201.29 94.6426 222.597 86.041 247.32V196.616Z" fill="#646D82"/>
<path d="M89.209 209.573V220.811C93.3182 213.288 96.3322 211.371 99.961 206.708C104.917 202.067 107.353 199.696 113.267 196.1C119.18 192.504 146.598 178.03 169.177 171.287V161.398C165.145 162.567 161.247 163.826 157.484 165.174C155.603 165.803 153.721 166.523 151.839 167.152C133.292 173.355 114.476 185.402 114.476 185.402C114.476 185.402 92.3002 199.235 89.209 209.573Z" fill="#42E7AA"/>
<path opacity="0.7529" d="M510.237 183.28C520.989 192.72 527.441 203.058 528.516 213.936V245.761C527.441 234.883 520.989 224.545 510.237 215.105V183.28Z" fill="#42E7AA"/>
<path d="M492.093 170.424C496.662 173.121 500.963 175.908 504.726 178.695V210.52C500.963 207.643 496.662 204.856 492.093 202.249V170.424Z" fill="#42E7AA"/>
<path opacity="0.7529" d="M468.171 158.917C473.816 161.254 479.192 163.682 484.299 166.199V198.024C479.326 195.507 473.95 192.989 468.171 190.742V158.917Z" fill="#42E7AA"/>
<path d="M384.005 153.236C387.23 153.685 390.59 154.225 393.816 154.764V165.822C390.59 165.282 387.365 164.743 384.005 164.293V153.236Z" fill="#42E7AA"/>
<path opacity="0.7529" d="M366.129 161.956C369.489 162.316 372.983 162.765 376.343 163.125V172.295C372.983 171.845 369.623 171.486 366.129 171.126V161.956Z" fill="#42E7AA"/>
<path d="M347.447 152.246C350.942 152.516 354.436 152.785 357.93 153.145V161.236C354.436 160.877 350.942 160.607 347.447 160.337V152.246Z" fill="#42E7AA"/>
<path opacity="0.7529" d="M328.229 142.571C331.857 142.751 335.486 142.841 338.981 143.11V159.383C335.352 159.203 331.857 159.023 328.229 158.843V142.571Z" fill="#42E7AA"/>
<path opacity="0.7529" d="M308.606 134.93C309.01 134.93 309.413 134.93 309.816 134.93C313.176 134.93 316.402 135.02 319.762 135.109V158.574C316.536 158.484 313.176 158.484 309.816 158.394C309.413 158.394 309.01 158.394 308.606 158.394V134.93Z" fill="#42E7AA"/>
<path d="M288.85 142.392C292.478 142.302 296.107 142.212 299.87 142.212V158.484C296.242 158.484 292.478 158.574 288.85 158.664V142.392Z" fill="#42E7AA"/>
<path opacity="0.7529" d="M269.764 139.065C273.258 138.885 276.887 138.616 280.516 138.526V158.933C276.887 159.113 273.392 159.293 269.764 159.473V139.065Z" fill="#42E7AA"/>
<path d="M250.948 131.693C254.443 131.334 257.803 131.064 261.297 130.794V160.102C257.803 160.372 254.308 160.642 250.948 161.001V146.347V131.693Z" fill="#42E7AA"/>
<path d="M154.987 337.211V328.671C157.541 329.57 160.229 330.469 162.917 331.368V339.908C160.229 339.009 157.675 338.11 154.987 337.211ZM129.855 326.513V310.69C132.005 311.769 134.155 312.848 136.44 313.837V329.66C134.155 328.581 132.005 327.502 129.855 326.513ZM141.816 331.997V313.387C144.235 314.376 146.655 315.365 149.074 316.354V334.964C146.655 333.975 144.235 332.986 141.816 331.997ZM109.56 314.286V293.609C111.173 294.778 112.92 296.037 114.667 297.205V317.883C112.92 316.624 111.307 315.455 109.56 314.286ZM119.102 320.58V298.194C120.984 299.363 123 300.442 125.016 301.521V323.906C122.866 322.827 120.984 321.658 119.102 320.58ZM94.9105 300.711V276.438C95.9857 277.787 97.1953 279.045 98.4049 280.304V304.577C97.1953 303.319 96.1201 302.06 94.9105 300.711ZM101.496 307.634V276.079C102.84 277.337 104.318 278.596 105.797 279.854V311.41C104.318 310.151 102.974 308.892 101.496 307.634ZM89.9376 293.609V257.919C90.744 259.267 91.5504 260.616 92.6256 261.964V297.565C91.5504 296.306 90.744 294.958 89.9376 293.609ZM179.045 301.521C128.376 287.856 93.4321 266.279 86.04 241.557V292.261C93.4321 316.984 128.376 338.56 179.045 352.225V301.521Z" fill="#3F4658"/>
<path d="M327.692 357.978V346.56C336.428 346.201 345.029 345.751 353.362 345.032V356.449C345.029 357.169 336.428 357.618 327.692 357.978ZM286.699 358.068V337.211C291.941 337.39 297.183 337.48 302.559 337.57C306.188 337.57 309.816 337.57 313.445 337.57V358.427C309.816 358.427 306.188 358.517 302.559 358.427C297.183 358.337 291.941 358.247 286.699 358.068ZM247.186 355.281V323.456C255.384 324.355 263.851 324.984 272.587 325.523V357.348C263.986 356.899 255.519 356.18 247.186 355.281ZM366.936 355.191V321.478C375.135 320.579 383.199 319.5 390.994 318.331V351.954C383.199 353.213 375.135 354.292 366.936 355.191ZM411.154 307.004C378.898 313.657 341.804 317.343 302.559 317.073C275.141 316.893 249.067 314.825 225.01 311.139V361.843C249.067 365.44 275.141 367.597 302.559 367.777C341.804 368.047 378.898 364.361 411.154 357.708V307.004Z" fill="#3F4658"/>
<path d="M465.586 321.478V311.679C500.933 297.745 523.915 279.135 527.679 258.368V268.167C523.915 288.934 500.933 307.544 465.586 321.478ZM528.216 284.169V233.465C527.141 258.278 498.379 280.394 453.624 295.677V346.381C498.514 331.098 527.141 308.892 528.216 284.169Z" fill="#3F4658"/>
<path d="M527.68 258.368C523.917 279.045 500.934 297.745 465.587 311.679V321.478C500.934 307.544 523.917 288.934 527.68 268.167V258.368Z" fill="#F3F3F3"/>
<path d="M272.586 325.523C263.985 324.983 255.517 324.354 247.185 323.455V355.28C255.383 356.179 263.85 356.808 272.586 357.347V325.523Z" fill="#F3F3F3"/>
<path d="M353.361 345.032C344.894 345.751 336.426 346.201 327.69 346.56V357.978C336.426 357.618 345.028 357.169 353.361 356.449V345.032Z" fill="#F3F3F3"/>
<path d="M390.992 317.971C383.197 319.23 375.133 320.309 366.935 321.118V354.741C375.133 353.842 383.197 352.763 390.992 351.594V317.971Z" fill="#F3F3F3"/>
<path opacity="0.7529" d="M313.443 337.48C309.814 337.48 306.185 337.57 302.556 337.48C297.18 337.48 291.939 337.3 286.697 337.12V357.977C291.939 358.157 297.18 358.247 302.556 358.337C306.185 358.337 309.814 358.337 313.443 358.337V337.48Z" fill="#F3F3F3"/>
<path d="M92.6255 262.143C91.6847 260.794 90.7439 259.446 89.9375 258.097V293.698C90.7439 295.047 91.5503 296.395 92.6255 297.744V262.143Z" fill="#F3F3F3"/>
<path d="M98.4055 280.573C97.1959 279.314 95.9863 277.965 94.9111 276.707V300.98C95.9863 302.329 97.1959 303.587 98.4055 304.846V280.573Z" fill="#F3F3F3"/>
<path opacity="0.7529" d="M105.931 280.033C104.452 278.774 102.974 277.516 101.63 276.257V307.812C102.974 309.071 104.452 310.33 105.931 311.588V280.033Z" fill="#F3F3F3"/>
<path d="M114.802 297.294C113.054 296.126 111.307 294.957 109.694 293.698V314.375C111.307 315.544 113.054 316.803 114.802 317.971V297.294Z" fill="#F3F3F3"/>
<path d="M124.882 301.699C122.866 300.621 120.85 299.452 118.969 298.373V320.758C120.85 321.927 122.866 323.006 124.882 324.085V301.699Z" fill="#F3F3F3"/>
<path opacity="0.7529" d="M136.44 314.016C134.155 313.027 132.005 311.948 129.854 310.869V326.692C132.005 327.771 134.155 328.849 136.44 329.838V314.016Z" fill="#F3F3F3"/>
<path d="M149.073 316.533C146.654 315.544 144.235 314.555 141.815 313.566V332.176C144.235 333.165 146.654 334.154 149.073 335.143V316.533Z" fill="#F3F3F3"/>
<path opacity="0.7529" d="M162.916 331.457C160.228 330.558 157.674 329.659 154.986 328.76V337.301C157.54 338.2 160.228 339.099 162.916 339.998V331.457Z" fill="#F3F3F3"/>
<defs>
<linearGradient id="paint0_linear_41_5007" x1="482.44" y1="250.99" x2="482.44" y2="466.256" gradientUnits="userSpaceOnUse">
<stop stop-color="white" stop-opacity="0"/>
<stop offset="0.862563" stop-color="#C4C4C4" stop-opacity="0.43"/>
<stop offset="1" stop-color="#C4C4C4" stop-opacity="0"/>
</linearGradient>
<linearGradient id="paint1_linear_41_5007" x1="298.947" y1="83.0103" x2="298.947" y2="298.276" gradientUnits="userSpaceOnUse">
<stop stop-color="white" stop-opacity="0"/>
<stop offset="0.862563" stop-color="#C4C4C4" stop-opacity="0.43"/>
<stop offset="1" stop-color="#C4C4C4" stop-opacity="0"/>
</linearGradient>
<linearGradient id="paint2_linear_41_5007" x1="296.363" y1="176.064" x2="296.363" y2="391.33" gradientUnits="userSpaceOnUse">
<stop stop-color="white" stop-opacity="0"/>
<stop offset="0.862563" stop-color="#C4C4C4" stop-opacity="0.43"/>
<stop offset="1" stop-color="#C4C4C4" stop-opacity="0"/>
</linearGradient>
<linearGradient id="paint3_linear_41_5007" x1="124.498" y1="137.392" x2="124.498" y2="352.658" gradientUnits="userSpaceOnUse">
<stop stop-color="white" stop-opacity="0"/>
<stop offset="0.862563" stop-color="#C4C4C4" stop-opacity="0.43"/>
<stop offset="1" stop-color="#C4C4C4" stop-opacity="0"/>
</linearGradient>
<linearGradient id="paint4_linear_41_5007" x1="457.888" y1="137.392" x2="457.888" y2="352.658" gradientUnits="userSpaceOnUse">
<stop stop-color="white" stop-opacity="0"/>
<stop offset="0.862563" stop-color="#C4C4C4" stop-opacity="0.43"/>
<stop offset="1" stop-color="#C4C4C4" stop-opacity="0"/>
</linearGradient>
<linearGradient id="paint5_linear_41_5007" x1="114.162" y1="250.99" x2="114.162" y2="466.256" gradientUnits="userSpaceOnUse">
<stop stop-color="white" stop-opacity="0"/>
<stop offset="0.862563" stop-color="#C4C4C4" stop-opacity="0.43"/>
<stop offset="1" stop-color="#C4C4C4" stop-opacity="0"/>
</linearGradient>
<linearGradient id="paint6_linear_41_5007" x1="293.576" y1="201.818" x2="293.576" y2="521.477" gradientUnits="userSpaceOnUse">
<stop stop-color="white" stop-opacity="0"/>
<stop offset="0.862563" stop-color="#C4C4C4" stop-opacity="0.43"/>
<stop offset="1" stop-color="#C4C4C4" stop-opacity="0"/>
</linearGradient>
</defs>
</svg>
